<svg xmlns="http://www.w3.org/2000/svg" viewBox="0 0 124.26 124.72"><defs><style>.cls-1{stroke:#fff;stroke-miterlimit:10;stroke-width:0.5px;}</style></defs><title>logo</title><g id="レイヤー_2" data-name="レイヤー 2"><g id="レイヤー_1-2" data-name="レイヤー 1"><path class="cls-1" d="M95.44,92.12a42.86,42.86,0,0,0-.83-57.91h0l0,0A42.88,42.88,0,0,0,64.78,20.66h0l-.83,0-.65,0-.66,0-.83,0h0A42.89,42.89,0,0,0,32,34.19l0,0h0a42.89,42.89,0,0,0-.83,57.91s0,0,0,0,.06.06.09.09A42.85,42.85,0,0,0,61.8,106.58h0l.83,0h1.31l.83,0h0A42.87,42.87,0,0,0,95.35,92.22s.05,0,.07-.06S95.43,92.14,95.44,92.12Zm-72.15-27h17.8a54.49,54.49,0,0,0,3.58,18.12,54.55,54.55,0,0,0-12,6.12A39.81,39.81,0,0,1,23.29,65.1ZM33.45,37a54.84,54.84,0,0,0,11.71,5.75,54.73,54.73,0,0,0-4.07,19.42H23.29A39.8,39.8,0,0,1,33.45,37Zm69.83,25.17H85.48a54.73,54.73,0,0,0-4.07-19.42A54.84,54.84,0,0,0,93.12,37,39.8,39.8,0,0,1,103.28,62.14ZM61.8,42.81a51.92,51.92,0,0,1-12.56-1.9A51.89,51.89,0,0,1,61.8,24.54Zm0,3V62.14H44.05a51.92,51.92,0,0,1,4-18.5A54.64,54.64,0,0,0,61.8,45.77Zm3,0a54.64,54.64,0,0,0,13.8-2.13,51.71,51.71,0,0,1,4,18.5H64.77Zm0-3V24.54A51.89,51.89,0,0,1,77.33,40.91,51.92,51.92,0,0,1,64.77,42.81ZM80.2,40A54.93,54.93,0,0,0,68.51,23.94,39.88,39.88,0,0,1,91,34.79,51.31,51.31,0,0,1,80.2,40ZM46.37,40a51.31,51.31,0,0,1-10.82-5.21A39.88,39.88,0,0,1,58.07,23.94,54.78,54.78,0,0,0,46.37,40ZM44.05,65.1H61.8V80a54.57,54.57,0,0,0-14.32,2.28A51.76,51.76,0,0,1,44.05,65.1ZM61.8,83V102.7A51.94,51.94,0,0,1,48.63,85,52,52,0,0,1,61.8,83Zm3,19.75V83A52,52,0,0,1,77.94,85,51.94,51.94,0,0,1,64.77,102.7Zm0-22.71V65.1H82.52a51.76,51.76,0,0,1-3.43,17.17A54.57,54.57,0,0,0,64.77,80ZM85.48,65.1h17.8a39.81,39.81,0,0,1-9.35,24.24,54.55,54.55,0,0,0-12-6.12A54.49,54.49,0,0,0,85.48,65.1ZM34.65,91.56A51.77,51.77,0,0,1,45.8,86,54.68,54.68,0,0,0,58.06,103.3,39.91,39.91,0,0,1,34.65,91.56ZM68.51,103.3A54.57,54.57,0,0,0,80.77,86a51.77,51.77,0,0,1,11.15,5.6A39.91,39.91,0,0,1,68.51,103.3Z"/><path d="M41.06,9l1.34,7.78L41,17.57,35.86,13.5l-.09.05L36.58,20l-1.36.74-5.89-5.29-.79.43-.8-1.46,4.07-2.23.8,1.46-1.25.69,3.35,3.18.11-.06L34,11l1.18-.65,5.19,4,.11,0L39.31,10l-1.2.65-.8-1.46L41.06,7.1l.8,1.47Z"/><path d="M53.65,13.61a4.37,4.37,0,0,1-5.44-3.72A4.53,4.53,0,0,1,52,4.21,4.47,4.47,0,0,1,57.53,8,4.58,4.58,0,0,1,53.65,13.61ZM52.25,5.9c-1.52.29-2.19,1.64-1.85,3.44s1.41,2.88,3,2.57,2.24-1.71,1.89-3.53S53.71,5.62,52.25,5.9Z"/><path d="M70.41,4l.22,2.86L68.93,7l-.25-1.58A1.57,1.57,0,0,0,68,5.12c-.77,0-1.44.6-1.5,1.69l-.23,4.05,1.81.1L68,12.63l-5.34-.3.09-1.67,1.36.08L64.42,5,63,4.88l.09-1.68,3.43.19L66.43,5.1a2.32,2.32,0,0,1,2.3-1.73A3.12,3.12,0,0,1,70.41,4Z"/><path d="M74.41,13.55l.42-1.61,1.32.35L78.88,2l-1.39-.37L77.92,0,81.4.92,78.24,12.84l1.31.35-.43,1.62Z"/><path d="M89.34,19.35l.82-1.55a3.37,3.37,0,0,1-3.72.24c-2.11-1.12-2.62-3.35-1.29-5.87,1.23-2.3,3.44-3.77,5.94-2.45A3.22,3.22,0,0,1,93,12.54l2.16-4.08-1.74-.93.78-1.47,3.67,2L92,18.9l1.19.63L92.45,21Zm2.38-4.49a2.35,2.35,0,0,0-.9-3.3c-1.29-.68-2.73-.11-3.61,1.56s-.47,3.1.66,3.7a2.76,2.76,0,0,0,3.53-1.35Z"/><path d="M103.72,32.11c-1.62-2-1.5-4.46.85-6.34s5-1.6,6.71.53a6.31,6.31,0,0,1,1.34,3.08l-1.78,1.89L109.6,30l1-1.18a3.71,3.71,0,0,0-.7-1.47c-.91-1.12-2.29-1.09-3.81.13s-1.83,2.48-.86,3.68c.75.94,1.68,1,2.9.31l.88,1.65A3.83,3.83,0,0,1,103.72,32.11Z"/><path d="M111.55,45.26l1.4-.61a3.24,3.24,0,0,1-2.77-2.09,3,3,0,0,1,1.73-4.23l4-1.74-.54-1.26,1.53-.66,1.41,3.25L113.51,40c-1.59.69-1.93,1.55-1.47,2.59a2.27,2.27,0,0,0,3.09,1.1l3.27-1.42-.65-1.49,1.53-.67,1.52,3.5-6.86,3,.57,1.31-1.53.66Z"/><path d="M123.62,58.36l-2.76.81-.45-1.64,1.5-.58a1.63,1.63,0,0,0,.1-.71c-.12-.77-.88-1.29-2-1.13l-4,.6.27,1.8-1.65.24-.79-5.29,1.65-.25.2,1.35,5.72-.86-.22-1.41,1.67-.25.52,3.4-1.7.26a2.31,2.31,0,0,1,2.16,1.9A3.1,3.1,0,0,1,123.62,58.36Z"/><path d="M123.3,72.34l-2.87.15-.06-1.7,1.59-.22a1.38,1.38,0,0,0,.25-.67c.07-.77-.55-1.46-1.65-1.54l-4-.33-.15,1.8-1.67-.13.44-5.34,1.66.14-.11,1.36,5.76.46.12-1.42,1.68.14L124,68.47l-1.71-.14A2.33,2.33,0,0,1,124,70.67,3.05,3.05,0,0,1,123.3,72.34Z"/><path d="M112.1,80.43a4.25,4.25,0,0,1,5.83-2.86c2.66.89,4.13,3.12,3.25,5.76A3.87,3.87,0,0,1,116.09,86a6.43,6.43,0,0,1-1.12-.5l2-5.85c-1.6-.41-2.73.07-3.21,1.5a2,2,0,0,0,.84,2.51l-.9,1.61C112.17,84.6,111.32,82.79,112.1,80.43Zm7.56,2.37c.41-1.23-.31-2.16-1.48-2.72l-1.27,3.82A1.9,1.9,0,0,0,119.66,82.8Z"/><path d="M105.8,93.36l1.39.94-.75,1.11,3,2c1.44,1,2.34.79,3-.14a2.22,2.22,0,0,0-.67-3.17l-3-2-.76,1.13-1.39-.93,2.74-4.07,1.38.93-.76,1.13,4.8,3.22.79-1.18,1.4.94-2,3-1.23-.83a3.34,3.34,0,0,1-.3,3.45,3,3,0,0,1-4.49.81l-3.64-2.44-.76,1.13-1.38-.93Z"/><path d="M96.89,102.91c2-1.7,4.39-1.67,6.36.6s1.8,4.94-.27,6.73a6.15,6.15,0,0,1-3,1.45L98,110l1.2-1.28,1.22.94a3.84,3.84,0,0,0,1.44-.76c1.09-1,1-2.33-.27-3.81s-2.55-1.73-3.72-.71c-.91.78-.93,1.72-.2,2.91l-1.61.94A3.82,3.82,0,0,1,96.89,102.91Z"/><path d="M85.8,118.73l-.57-8-.25-2.8-1.2.59L83,106.94l4.38-2.16.76,1.53-1.39.69.32,2.67L93.33,115l.9-.44.73,1.5-4,2-.74-1.5,1-.51-4.08-3.5-.11,0,.65,5.19.93-.46.74,1.5-3.68,1.82-.74-1.5Z"/><path d="M66.18,115.19c2.6-.15,4.5,1.36,4.67,4.37s-1.6,5-4.32,5.15a6.12,6.12,0,0,1-3.28-.7l-.51-2.54,1.74-.28.39,1.49a3.54,3.54,0,0,0,1.6.28c1.44-.08,2.22-1.23,2.11-3.18s-1-2.92-2.5-2.84c-1.2.07-1.8.8-1.94,2.19l-1.85-.24A3.81,3.81,0,0,1,66.18,115.19Z"/><path d="M50.91,113.94l-.32,1.49a3.27,3.27,0,0,1,3.3-1.05,3,3,0,0,1,2.45,3.87l-.91,4.28,1.34.28-.35,1.64L53,123.71,54,118.58c.36-1.7-.14-2.47-1.25-2.7a2.26,2.26,0,0,0-2.69,1.88l-.74,3.49,1.59.33-.34,1.64-3.73-.79,1.55-7.31L47,114.83l.34-1.64Z"/><path d="M43.83,111.63l-.71,1.51-1.23-.58-4.54,9.65,1.31.61-.72,1.51-3.26-1.53,5.26-11.16-1.24-.58.71-1.51Z"/><path d="M32.34,104.7c2.08,1.58,2.55,4,.72,6.35s-4.46,2.77-6.63,1.12a6.16,6.16,0,0,1-2-2.65l1.26-2.26,1.5.91-.67,1.38a3.76,3.76,0,0,0,1,1.26c1.15.87,2.48.5,3.67-1.06s1.16-2.84-.07-3.78c-1-.73-1.88-.56-2.89.41L27,105A3.82,3.82,0,0,1,32.34,104.7Z"/><path d="M21.54,93.87l-1.21.93a3.24,3.24,0,0,1,3.19,1.34,3,3,0,0,1-.64,4.54l-3.46,2.67.83,1.08-1.32,1-2.16-2.8,4.15-3.21c1.37-1.06,1.49-2,.79-2.88a2.27,2.27,0,0,0-3.27-.3l-2.82,2.18,1,1.29-1.32,1-2.33-3,5.91-4.57L18,92l1.32-1Z"/><path d="M17.64,87.52l-1.52.69L15.55,87l-9.7,4.42.6,1.31-1.52.7-1.5-3.28L14.66,85l-.57-1.24,1.52-.69Z"/><path d="M4,76.7c-.43-2,.26-3.64,2.29-4.08l4-.86c.58-.12.76-.37.66-.83a1.85,1.85,0,0,0-.18-.44L12,70.22a3.05,3.05,0,0,1,.69,1.35,1.76,1.76,0,0,1-1.38,2.21h0a3.44,3.44,0,0,1,2.44,2.54,2.56,2.56,0,0,1-2,3.29c-2.21.47-3.16-1.55-3.6-3.58a12.7,12.7,0,0,1-.24-1.53l-.5.11c-1.06.23-2,.62-1.71,2.12a3.11,3.11,0,0,0,.62,1.42l1.45.07L7.94,80l-2.31.1A7.37,7.37,0,0,1,4,76.7Zm5-2.43a11,11,0,0,0,.19,1.46c.23,1.06.72,2,1.83,1.75A1.18,1.18,0,0,0,12,75.93a2.25,2.25,0,0,0-2.64-1.72Z"/><path d="M12.25,62c-.05,2-1.16,3.17-3,3.13L4.44,65l0,1.34-1.61,0,0-1.34L0,64.87.05,62.7l2.83.06L3,59.36l1.61,0-.08,3.4L9,62.9c1,0,1.45-.41,1.47-1.23,0-.46-.14-1.16-1.54-1.4l.55-1.59A3,3,0,0,1,12.25,62Z"/><path d="M13.94,50.71A4.38,4.38,0,0,1,8.21,54a4.53,4.53,0,0,1-3.46-5.86,4.47,4.47,0,0,1,5.85-3.34A4.58,4.58,0,0,1,13.94,50.71ZM6.39,48.6c-.4,1.49.52,2.69,2.29,3.16s3.21,0,3.63-1.57-.56-2.77-2.35-3.25S6.78,47.16,6.39,48.6Z"/><path d="M12.66,31.41l2.67,1.06L14.68,34l-1.53-.47a1.47,1.47,0,0,0-.52.5,1.56,1.56,0,0,0,.85,2.1l3.53,2,.89-1.58,1.45.82-2.62,4.66-1.45-.81.66-1.19-5-2.84-.7,1.25-1.47-.83,1.69-3,1.48.84a2.32,2.32,0,0,1-.53-2.82A3.07,3.07,0,0,1,12.66,31.41Z"/></g></g></svg>